<svg xmlns="http://www.w3.org/2000/svg" width="1200" height="900" viewBox="0 0 1200 900"><rect width="1200" height="900" fill="#b6a5ed"/><circle cx="1080" cy="40" r="450" fill="#ffffff15"/><g font-family="Arial,sans-serif"><rect x="65" y="120" width="1070" height="650" rx="24" fill="#101110"/><rect x="65" y="120" width="1070" height="50" rx="24" fill="#242523"/><circle cx="94" cy="146" r="5" fill="#ff7e64"/><circle cx="114" cy="146" r="5" fill="#e4bb63"/><circle cx="134" cy="146" r="5" fill="#92bd8c"/><text x="490" y="151" fill="#92958c" font-size="12">frequency-analytics.example</text><text x="95" y="223" fill="#b6a5ed" font-size="22" font-weight="700">Frequency</text><text x="95" y="295" fill="#b6a5ed" font-size="17">Dashboard</text><text x="95" y="345" fill="#8c9087" font-size="17">Reports</text><text x="95" y="395" fill="#8c9087" font-size="17">Sources</text><text x="95" y="445" fill="#8c9087" font-size="17">Settings</text><text x="300" y="225" fill="#f4f4ef" font-size="29">Frequency Analytics</text><text x="300" y="265" fill="#92958c" font-size="16">Clear data. Better decisions.</text><path d="M300 475 L380 440 L450 465 L520 360 L600 390 L690 300 L770 350 L850 260 L1000 220" fill="none" stroke="#b6a5ed" stroke-width="6"/><text x="300" y="690" fill="#777c71" font-size="13">Interface concept · Demonstration data</text><text x="70" y="825" fill="#172019" font-size="18">FOLIOBLOX / DEVELOPMENT STUDY</text></g></svg>